<svg version="1.1" id="Layer_1" xmlns="http://www.w3.org/2000/svg" xmlns:xlink="http://www.w3.org/1999/xlink" x="0px" y="0px"
	 width="100%" viewBox="0 0 1254 1254" enable-background="new 0 0 1254 1254" xml:space="preserve">
<path fill="#000001" opacity="1.000000" stroke="none" 
	d="
M673.000000,1255.000000 
	C448.666656,1255.000000 224.833328,1255.000000 1.000000,1255.000000 
	C1.000000,837.000000 1.000000,419.000000 1.000000,1.000000 
	C419.000000,1.000000 837.000000,1.000000 1255.000000,1.000000 
	C1255.000000,419.000000 1255.000000,837.000000 1255.000000,1255.000000 
	C1061.166626,1255.000000 867.333313,1255.000000 673.000000,1255.000000 
M69.966454,707.500000 
	C69.962685,773.995239 70.060760,840.490784 69.901604,906.985657 
	C69.843475,931.270935 72.437218,955.137939 78.617355,978.650513 
	C96.114494,1045.219238 132.794342,1098.706055 188.854782,1138.438232 
	C234.841583,1171.030884 286.662231,1187.910278 342.883148,1188.104492 
	C515.538757,1188.701050 688.197815,1188.374146 860.855408,1188.258545 
	C890.147888,1188.239014 919.497437,1189.616821 948.677551,1185.375244 
	C1008.903015,1176.620972 1061.319580,1151.768433 1104.992920,1109.243774 
	C1132.219116,1082.733643 1152.274170,1051.319946 1166.298218,1016.038330 
	C1178.658325,984.942627 1186.274414,952.519836 1186.412842,919.224426 
	C1187.033447,769.901550 1186.774536,620.574646 1186.648560,471.249298 
	C1186.607788,422.941376 1186.796387,374.610901 1185.393921,326.333923 
	C1184.371948,291.157776 1174.574097,257.631592 1159.468872,225.888062 
	C1134.686401,173.808777 1097.774658,132.615601 1047.686646,103.577911 
	C1005.584656,79.170013 960.098206,65.938210 911.528320,65.826256 
	C727.372314,65.401787 543.214783,65.602119 359.057861,65.700798 
	C345.428497,65.708107 331.708923,65.954407 318.186981,67.474495 
	C270.070099,72.883583 225.967438,89.411430 186.636749,117.766922 
	C146.654724,146.591995 116.279190,183.483673 95.739716,228.418549 
	C78.369438,266.420074 69.863609,306.236115 69.905228,348.020294 
	C70.024254,467.513458 69.958832,587.006775 69.966454,707.500000 
z"/>
<path fill="#045CFB" opacity="1.000000" stroke="none" 
	d="
M69.966202,707.000000 
	C69.958832,587.006775 70.024254,467.513458 69.905228,348.020294 
	C69.863609,306.236115 78.369438,266.420074 95.739716,228.418549 
	C116.279190,183.483673 146.654724,146.591995 186.636749,117.766922 
	C225.967438,89.411430 270.070099,72.883583 318.186981,67.474495 
	C331.708923,65.954407 345.428497,65.708107 359.057861,65.700798 
	C543.214783,65.602119 727.372314,65.401787 911.528320,65.826256 
	C960.098206,65.938210 1005.584656,79.170013 1047.686646,103.577911 
	C1097.774658,132.615601 1134.686401,173.808777 1159.468872,225.888062 
	C1174.574097,257.631592 1184.371948,291.157776 1185.393921,326.333923 
	C1186.796387,374.610901 1186.607788,422.941376 1186.648560,471.249298 
	C1186.774536,620.574646 1187.033447,769.901550 1186.412842,919.224426 
	C1186.274414,952.519836 1178.658325,984.942627 1166.298218,1016.038330 
	C1152.274170,1051.319946 1132.219116,1082.733643 1104.992920,1109.243774 
	C1061.319580,1151.768433 1008.903015,1176.620972 948.677551,1185.375244 
	C919.497437,1189.616821 890.147888,1188.239014 860.855408,1188.258545 
	C688.197815,1188.374146 515.538757,1188.701050 342.883148,1188.104492 
	C286.662231,1187.910278 234.841583,1171.030884 188.854782,1138.438232 
	C132.794342,1098.706055 96.114494,1045.219238 78.617355,978.650513 
	C72.437218,955.137939 69.843475,931.270935 69.901604,906.985657 
	C70.060760,840.490784 69.962685,773.995239 69.966202,707.000000 
M910.996826,803.567200 
	C912.967224,800.284668 915.067871,797.072632 916.888733,793.709167 
	C955.090454,723.146729 969.076477,648.338745 954.681274,569.086365 
	C940.112915,488.880432 902.497375,421.178955 840.026428,368.484344 
	C769.175537,308.721252 686.993286,282.997131 594.601318,292.177765 
	C528.309448,298.764923 469.355499,323.839783 418.170258,366.545593 
	C358.193573,416.586517 320.431488,480.351990 303.786346,556.390747 
	C285.678253,639.112732 298.066071,717.841003 338.705475,791.816956 
	C372.779297,853.841431 422.537537,899.793396 486.375000,930.347168 
	C526.685303,949.640320 569.196106,960.692871 613.887817,962.503723 
	C682.466736,965.282410 745.835327,948.015076 804.087036,911.848450 
	C848.179688,884.472961 883.467651,848.349976 910.996826,803.567200 
z"/>
<path fill="#F9FCFD" opacity="1.000000" stroke="none" 
	d="
M910.802124,803.875366 
	C883.467651,848.349976 848.179688,884.472961 804.087036,911.848450 
	C745.835327,948.015076 682.466736,965.282410 613.887817,962.503723 
	C569.196106,960.692871 526.685303,949.640320 486.375000,930.347168 
	C422.537537,899.793396 372.779297,853.841431 338.705475,791.816956 
	C298.066071,717.841003 285.678253,639.112732 303.786346,556.390747 
	C320.431488,480.351990 358.193573,416.586517 418.170258,366.545593 
	C469.355499,323.839783 528.309448,298.764923 594.601318,292.177765 
	C686.993286,282.997131 769.175537,308.721252 840.026428,368.484344 
	C902.497375,421.178955 940.112915,488.880432 954.681274,569.086365 
	C969.076477,648.338745 955.090454,723.146729 916.888733,793.709167 
	C915.067871,797.072632 912.967224,800.284668 910.802124,803.875366 
M890.062988,497.511993 
	C887.165955,492.080017 884.355164,486.599945 881.358093,481.223724 
	C858.649292,440.488251 827.669495,407.205566 789.398438,380.830566 
	C754.281433,356.629242 715.280579,341.699127 673.123962,335.482147 
	C608.108154,325.894043 546.268250,335.970642 488.438263,367.534973 
	C444.897858,391.299835 409.792725,424.505646 383.534058,466.550720 
	C338.861572,538.079773 324.553558,615.104675 345.115967,697.409668 
	C362.968964,768.869812 402.034760,826.605896 462.509521,868.772156 
	C522.119934,910.335815 588.810242,926.916931 661.027222,918.875000 
	C735.785583,910.550171 797.991089,877.352600 847.326477,820.624329 
	C884.899780,777.420715 907.370605,726.978516 916.145325,670.534973 
	C925.480835,610.484070 915.924500,553.109863 890.062988,497.511993 
z"/>
<path fill="#075DFA" opacity="1.000000" stroke="none" 
	d="
M890.191284,497.864838 
	C915.924500,553.109863 925.480835,610.484070 916.145325,670.534973 
	C907.370605,726.978516 884.899780,777.420715 847.326477,820.624329 
	C797.991089,877.352600 735.785583,910.550171 661.027222,918.875000 
	C588.810242,926.916931 522.119934,910.335815 462.509521,868.772156 
	C402.034760,826.605896 362.968964,768.869812 345.115967,697.409668 
	C324.553558,615.104675 338.861572,538.079773 383.534058,466.550720 
	C409.792725,424.505646 444.897858,391.299835 488.438263,367.534973 
	C546.268250,335.970642 608.108154,325.894043 673.123962,335.482147 
	C715.280579,341.699127 754.281433,356.629242 789.398438,380.830566 
	C827.669495,407.205566 858.649292,440.488251 881.358093,481.223724 
	C884.355164,486.599945 887.165955,492.080017 890.191284,497.864838 
M600.945312,530.828308 
	C600.945312,530.828308 600.637939,530.578735 601.286621,530.610229 
	C601.847229,530.032166 602.407776,529.454102 602.955017,528.955566 
	C602.955017,528.955566 602.875732,528.940613 603.608521,528.968079 
	C605.319824,527.497375 607.031128,526.026611 608.753784,524.743042 
	C608.753784,524.743042 608.566223,524.744995 609.307495,524.646973 
	C610.415161,523.618164 611.522827,522.589355 612.705933,521.668091 
	C612.705933,521.668091 612.585938,521.614563 613.319641,521.687866 
	C615.865906,519.560425 618.412170,517.432983 620.986206,515.014038 
	C620.986206,515.014038 621.266968,514.930847 621.907532,514.570801 
	C622.296814,512.846802 623.020996,511.123627 623.025452,509.398651 
	C623.096863,481.748779 623.097717,454.098633 623.026184,426.448761 
	C623.021729,424.719696 622.286926,422.992523 621.707031,421.202789 
	C621.707031,421.202789 621.728088,421.009094 621.635864,420.704834 
	C621.525757,420.519073 621.386108,420.359100 620.496216,420.052399 
	C594.002930,404.994354 567.446533,390.045135 541.080322,374.767792 
	C536.842529,372.312286 533.437500,372.233337 529.032349,373.982574 
	C489.097229,389.840027 455.289246,414.344604 426.721863,446.223206 
	C425.129852,447.999725 424.231384,451.346619 424.559357,453.751282 
	C428.856598,485.258026 433.512848,516.715637 437.847595,548.217468 
	C438.447449,552.576843 440.193237,554.916565 444.307526,556.494263 
	C469.491211,566.151855 494.604523,575.994446 519.686523,585.913879 
	C522.578430,587.057617 524.637268,586.525330 526.967407,584.782959 
	C538.566711,576.109924 550.223755,567.513550 561.900696,558.945068 
	C574.234985,549.894287 586.614746,540.905457 599.541992,531.776245 
	C599.914124,531.369263 600.286255,530.962280 600.945312,530.828308 
M554.603088,736.375061 
	C554.108643,737.305237 553.614258,738.235413 553.108582,739.090088 
	C553.108582,739.090088 553.184509,739.082520 552.565552,739.380066 
	C551.085693,741.649292 549.605835,743.918518 548.117798,746.092590 
	C548.117798,746.092590 548.213196,746.088440 547.583313,746.376465 
	C547.184509,746.676208 546.676147,746.898682 546.402710,747.286682 
	C536.069763,761.950073 525.673706,776.570862 515.565735,791.388123 
	C514.468140,792.997131 514.235413,796.089294 514.990356,797.921204 
	C519.296692,808.370911 524.150757,818.593201 528.580383,828.994263 
	C536.260254,847.027039 543.846191,865.101196 551.278748,883.237000 
	C552.815186,886.986084 554.919006,889.289185 559.022278,890.010864 
	C571.450073,892.196533 583.788513,894.964905 596.271118,896.734802 
	C603.077148,897.699768 610.104553,897.102966 617.917908,897.120422 
	C620.291199,897.220947 622.664429,897.321472 625.408997,898.005554 
	C628.268494,897.801331 631.128052,897.597107 634.765442,897.225830 
	C635.823608,897.229004 636.881836,897.232239 638.680481,897.617432 
	C645.962769,897.381042 653.351624,897.844849 660.504150,896.756042 
	C673.595459,894.763184 686.571899,891.968140 699.527039,889.185425 
	C701.223633,888.821045 703.140381,886.833679 703.889038,885.129578 
	C709.167358,873.114868 714.138611,860.965698 719.261902,848.882385 
	C726.385925,832.080383 733.673523,815.345947 740.569763,798.451416 
	C741.492126,796.191772 741.534180,792.517273 740.287842,790.601379 
	C732.958435,779.335327 725.176208,768.360962 717.409546,757.385254 
	C716.223022,755.708496 714.324646,754.535461 712.840881,753.135193 
	C712.840881,753.135193 712.829590,753.220093 712.794495,752.490845 
	C710.249817,748.438904 707.918213,744.230835 705.097717,740.380920 
	C702.521179,736.863892 699.415527,733.734497 696.720825,730.246460 
	C696.720825,730.246460 696.512878,730.400208 696.612183,729.665344 
	C694.363647,726.790833 692.115051,723.916382 689.407227,720.887817 
	C689.115784,720.692871 688.961609,720.420349 688.658264,719.356262 
	C687.127319,718.933533 685.597168,718.144653 684.065369,718.141663 
	C646.515259,718.068909 608.965027,718.053955 571.415039,718.145142 
	C569.375000,718.150085 566.470093,718.507874 565.459717,719.836182 
	C562.298706,723.992065 559.853088,728.692078 557.115845,733.110229 
	C557.115845,733.110229 557.188232,733.112732 556.531067,733.305054 
	C556.060852,734.260315 555.590637,735.215576 555.103333,736.083862 
	C555.103333,736.083862 555.190918,736.070251 554.603088,736.375061 
M550.308899,690.231201 
	C540.788635,661.102051 531.310852,631.958801 521.651917,602.875732 
	C521.012634,600.950989 519.330688,598.634827 517.564453,597.932800 
	C491.256897,587.475464 464.872162,577.210510 438.424255,567.113403 
	C436.877502,566.522888 434.077423,567.111633 432.801331,568.227478 
	C408.985382,589.052246 385.277588,610.001526 361.692902,631.087830 
	C360.241333,632.385620 359.249451,635.064270 359.327271,637.050171 
	C359.607330,644.194336 360.174225,651.351501 361.104034,658.441956 
	C366.758789,701.562500 381.388153,741.410522 405.268738,777.777771 
	C406.505432,779.661072 409.269989,781.500610 411.448273,781.660950 
	C441.017212,783.836060 470.612152,785.655396 500.189148,787.726624 
	C503.984802,787.992432 506.231323,786.795654 508.394287,783.659790 
	C523.901184,761.178040 539.670227,738.876831 555.128357,716.362000 
	C556.385681,714.530640 556.699219,711.352112 556.153564,709.116272 
	C554.656494,702.981812 552.467529,697.016235 550.308899,690.231201 
M717.441040,653.994873 
	C711.601807,672.224854 705.670166,690.426453 700.043884,708.721924 
	C699.363586,710.934265 699.446716,714.261230 700.671021,716.046143 
	C716.486206,739.102234 732.525208,762.005920 748.695618,784.814819 
	C749.790649,786.359314 752.447510,787.779541 754.282837,787.669556 
	C784.530884,785.856567 814.767090,783.835144 844.991577,781.661743 
	C846.796814,781.531921 849.135254,780.155884 850.127319,778.640686 
	C878.298157,735.614929 893.728271,688.383789 896.255127,637.008179 
	C896.359863,634.878540 895.368469,631.964172 893.834778,630.594238 
	C870.500793,609.750183 846.969482,589.127136 823.557739,568.369629 
	C821.409363,566.464844 819.617065,566.091919 816.886108,567.167542 
	C790.872375,577.413757 764.775452,587.449585 738.797668,597.785339 
	C736.864868,598.554321 734.939941,600.925781 734.244141,602.971558 
	C728.563293,619.674194 723.175781,636.476562 717.441040,653.994873 
M644.994690,522.513306 
	C648.335449,524.995911 651.672302,527.483765 655.017578,529.960266 
	C679.497192,548.082336 703.985962,566.192078 728.447266,584.338745 
	C730.798767,586.083252 732.809937,587.266846 736.103027,585.957458 
	C761.622803,575.810730 787.216614,565.848511 812.841919,555.970276 
	C815.810242,554.826050 817.407654,553.344055 817.871521,550.071899 
	C822.449524,517.778809 827.203552,485.510559 831.710938,453.207794 
	C831.987671,451.224426 831.222534,448.454102 829.902222,446.983856 
	C800.885010,414.670837 766.891357,389.340485 726.185059,373.461060 
	C722.639404,372.077942 719.842102,372.082031 716.435852,374.041260 
	C690.606934,388.897797 664.707764,403.634644 638.696594,418.169067 
	C635.085022,420.187134 633.857605,422.521393 633.873474,426.446289 
	C633.975342,451.601227 634.380249,476.770325 633.660156,501.905365 
	C633.387695,511.414429 635.968140,517.939636 644.994690,522.513306 
z"/>
<path fill="#FCFDFD" opacity="1.000000" stroke="none" 
	d="
M550.430664,690.607544 
	C552.467529,697.016235 554.656494,702.981812 556.153564,709.116272 
	C556.699219,711.352112 556.385681,714.530640 555.128357,716.362000 
	C539.670227,738.876831 523.901184,761.178040 508.394287,783.659790 
	C506.231323,786.795654 503.984802,787.992432 500.189148,787.726624 
	C470.612152,785.655396 441.017212,783.836060 411.448273,781.660950 
	C409.269989,781.500610 406.505432,779.661072 405.268738,777.777771 
	C381.388153,741.410522 366.758789,701.562500 361.104034,658.441956 
	C360.174225,651.351501 359.607330,644.194336 359.327271,637.050171 
	C359.249451,635.064270 360.241333,632.385620 361.692902,631.087830 
	C385.277588,610.001526 408.985382,589.052246 432.801331,568.227478 
	C434.077423,567.111633 436.877502,566.522888 438.424255,567.113403 
	C464.872162,577.210510 491.256897,587.475464 517.564453,597.932800 
	C519.330688,598.634827 521.012634,600.950989 521.651917,602.875732 
	C531.310852,631.958801 540.788635,661.102051 550.430664,690.607544 
z"/>
<path fill="#FCFDFD" opacity="1.000000" stroke="none" 
	d="
M717.570068,653.621704 
	C723.175781,636.476562 728.563293,619.674194 734.244141,602.971558 
	C734.939941,600.925781 736.864868,598.554321 738.797668,597.785339 
	C764.775452,587.449585 790.872375,577.413757 816.886108,567.167542 
	C819.617065,566.091919 821.409363,566.464844 823.557739,568.369629 
	C846.969482,589.127136 870.500793,609.750183 893.834778,630.594238 
	C895.368469,631.964172 896.359863,634.878540 896.255127,637.008179 
	C893.728271,688.383789 878.298157,735.614929 850.127319,778.640686 
	C849.135254,780.155884 846.796814,781.531921 844.991577,781.661743 
	C814.767090,783.835144 784.530884,785.856567 754.282837,787.669556 
	C752.447510,787.779541 749.790649,786.359314 748.695618,784.814819 
	C732.525208,762.005920 716.486206,739.102234 700.671021,716.046143 
	C699.446716,714.261230 699.363586,710.934265 700.043884,708.721924 
	C705.670166,690.426453 711.601807,672.224854 717.570068,653.621704 
z"/>
<path fill="#FCFDFD" opacity="1.000000" stroke="none" 
	d="
M637.940002,897.235413 
	C636.881836,897.232239 635.823608,897.229004 633.940918,897.199280 
	C630.423462,897.255798 627.730591,897.338867 625.037720,897.421997 
	C622.664429,897.321472 620.291199,897.220947 617.073853,897.024292 
	C596.869629,895.973450 577.762695,893.268982 559.069092,888.113464 
	C556.915466,887.519531 554.406250,885.440247 553.528198,883.414185 
	C541.345154,855.300781 529.452087,827.061890 517.380310,798.899902 
	C516.080811,795.868286 515.926147,793.518921 518.019531,790.653931 
	C523.813110,782.724915 529.322693,774.585022 534.826050,766.448364 
	C539.376160,759.721069 543.757263,752.879456 548.213196,746.088440 
	C548.213196,746.088440 548.117798,746.092590 548.448303,746.034790 
	C550.247375,743.678833 551.715942,741.380676 553.184509,739.082520 
	C553.184509,739.082520 553.108582,739.090088 553.429504,739.016602 
	C554.230591,737.985474 554.710754,737.027832 555.190918,736.070251 
	C555.190918,736.070251 555.103333,736.083862 555.426147,736.013245 
	C556.228699,734.999329 556.708496,734.056030 557.188232,733.112732 
	C557.188232,733.112732 557.115845,733.110229 557.447266,733.045532 
	C560.362061,729.591675 562.762878,726.037354 565.612427,722.889160 
	C566.875122,721.494019 569.042664,720.099670 570.803894,720.094116 
	C610.183777,719.969116 649.564209,720.038025 688.944580,720.070251 
	C688.961609,720.420349 689.115784,720.692871 689.720764,721.303833 
	C692.193787,724.613281 694.353333,727.506714 696.512878,730.400208 
	C696.512878,730.400208 696.720825,730.246460 696.719360,730.673340 
	C702.088440,738.473572 707.459045,745.846802 712.829590,753.220093 
	C712.829590,753.220093 712.840881,753.135193 712.850830,753.485474 
	C721.045593,765.764404 729.119629,777.771729 737.485474,789.572144 
	C739.873596,792.940796 740.208679,795.710327 738.536316,799.573059 
	C726.776062,826.736023 715.134033,853.952698 703.798157,881.294739 
	C701.817200,886.072998 698.997986,888.397583 694.129883,889.088684 
	C675.392029,891.748840 656.668762,894.511169 637.940002,897.235413 
z"/>
<path fill="#FCFDFD" opacity="1.000000" stroke="none" 
	d="
M644.705322,522.301392 
	C635.968140,517.939636 633.387695,511.414429 633.660156,501.905365 
	C634.380249,476.770325 633.975342,451.601227 633.873474,426.446289 
	C633.857605,422.521393 635.085022,420.187134 638.696594,418.169067 
	C664.707764,403.634644 690.606934,388.897797 716.435852,374.041260 
	C719.842102,372.082031 722.639404,372.077942 726.185059,373.461060 
	C766.891357,389.340485 800.885010,414.670837 829.902222,446.983856 
	C831.222534,448.454102 831.987671,451.224426 831.710938,453.207794 
	C827.203552,485.510559 822.449524,517.778809 817.871521,550.071899 
	C817.407654,553.344055 815.810242,554.826050 812.841919,555.970276 
	C787.216614,565.848511 761.622803,575.810730 736.103027,585.957458 
	C732.809937,587.266846 730.798767,586.083252 728.447266,584.338745 
	C703.985962,566.192078 679.497192,548.082336 655.017578,529.960266 
	C651.672302,527.483765 648.335449,524.995911 644.705322,522.301392 
z"/>
<path fill="#FCFDFD" opacity="1.000000" stroke="none" 
	d="
M598.974609,531.889526 
	C586.614746,540.905457 574.234985,549.894287 561.900696,558.945068 
	C550.223755,567.513550 538.566711,576.109924 526.967407,584.782959 
	C524.637268,586.525330 522.578430,587.057617 519.686523,585.913879 
	C494.604523,575.994446 469.491211,566.151855 444.307526,556.494263 
	C440.193237,554.916565 438.447449,552.576843 437.847595,548.217468 
	C433.512848,516.715637 428.856598,485.258026 424.559357,453.751282 
	C424.231384,451.346619 425.129852,447.999725 426.721863,446.223206 
	C455.289246,414.344604 489.097229,389.840027 529.032349,373.982574 
	C533.437500,372.233337 536.842529,372.312286 541.080322,374.767792 
	C567.446533,390.045135 594.002930,404.994354 620.858643,420.310486 
	C621.328491,420.786285 621.497498,420.933105 621.728088,421.009094 
	C621.728088,421.009094 621.707031,421.202789 621.760742,421.670166 
	C621.831238,451.093567 621.859802,480.049530 621.839111,509.005493 
	C621.837646,510.980743 621.466309,512.955750 621.266968,514.930847 
	C621.266968,514.930847 620.986206,515.014038 620.674377,515.264526 
	C617.770325,517.548218 615.178162,519.581360 612.585938,521.614563 
	C612.585938,521.614563 612.705933,521.668091 612.365662,521.740540 
	C610.872314,522.790344 609.719299,523.767639 608.566223,524.744995 
	C608.566223,524.744995 608.753784,524.743042 608.413391,524.731934 
	C606.340576,526.127441 604.608154,527.533997 602.875732,528.940613 
	C602.875732,528.940613 602.955017,528.955566 602.660156,528.965942 
	C601.789490,529.510498 601.213745,530.044617 600.637939,530.578735 
	C600.637939,530.578735 600.945312,530.828308 600.519287,530.740662 
	C599.720398,531.065186 599.347473,531.477356 598.974609,531.889526 
z"/>
<path fill="#2E6BDD" opacity="1.000000" stroke="none" 
	d="
M638.310242,897.426392 
	C656.668762,894.511169 675.392029,891.748840 694.129883,889.088684 
	C698.997986,888.397583 701.817200,886.072998 703.798157,881.294739 
	C715.134033,853.952698 726.776062,826.736023 738.536316,799.573059 
	C740.208679,795.710327 739.873596,792.940796 737.485474,789.572144 
	C729.119629,777.771729 721.045593,765.764404 712.808105,753.482544 
	C714.324646,754.535461 716.223022,755.708496 717.409546,757.385254 
	C725.176208,768.360962 732.958435,779.335327 740.287842,790.601379 
	C741.534180,792.517273 741.492126,796.191772 740.569763,798.451416 
	C733.673523,815.345947 726.385925,832.080383 719.261902,848.882385 
	C714.138611,860.965698 709.167358,873.114868 703.889038,885.129578 
	C703.140381,886.833679 701.223633,888.821045 699.527039,889.185425 
	C686.571899,891.968140 673.595459,894.763184 660.504150,896.756042 
	C653.351624,897.844849 645.962769,897.381042 638.310242,897.426392 
z"/>
<path fill="#2E6BDD" opacity="1.000000" stroke="none" 
	d="
M547.898254,746.232422 
	C543.757263,752.879456 539.376160,759.721069 534.826050,766.448364 
	C529.322693,774.585022 523.813110,782.724915 518.019531,790.653931 
	C515.926147,793.518921 516.080811,795.868286 517.380310,798.899902 
	C529.452087,827.061890 541.345154,855.300781 553.528198,883.414185 
	C554.406250,885.440247 556.915466,887.519531 559.069092,888.113464 
	C577.762695,893.268982 596.869629,895.973450 616.630981,897.069336 
	C610.104553,897.102966 603.077148,897.699768 596.271118,896.734802 
	C583.788513,894.964905 571.450073,892.196533 559.022278,890.010864 
	C554.919006,889.289185 552.815186,886.986084 551.278748,883.237000 
	C543.846191,865.101196 536.260254,847.027039 528.580383,828.994263 
	C524.150757,818.593201 519.296692,808.370911 514.990356,797.921204 
	C514.235413,796.089294 514.468140,792.997131 515.565735,791.388123 
	C525.673706,776.570862 536.069763,761.950073 546.402710,747.286682 
	C546.676147,746.898682 547.184509,746.676208 547.898254,746.232422 
z"/>
<path fill="#2E6BDD" opacity="1.000000" stroke="none" 
	d="
M688.801392,719.713257 
	C649.564209,720.038025 610.183777,719.969116 570.803894,720.094116 
	C569.042664,720.099670 566.875122,721.494019 565.612427,722.889160 
	C562.762878,726.037354 560.362061,729.591675 557.454468,733.080994 
	C559.853088,728.692078 562.298706,723.992065 565.459717,719.836182 
	C566.470093,718.507874 569.375000,718.150085 571.415039,718.145142 
	C608.965027,718.053955 646.515259,718.068909 684.065369,718.141663 
	C685.597168,718.144653 687.127319,718.933533 688.801392,719.713257 
z"/>
<path fill="#215BC6" opacity="1.000000" stroke="none" 
	d="
M621.587280,514.750854 
	C621.466309,512.955750 621.837646,510.980743 621.839111,509.005493 
	C621.859802,480.049530 621.831238,451.093567 621.853149,421.701019 
	C622.286926,422.992523 623.021729,424.719696 623.026184,426.448761 
	C623.097717,454.098633 623.096863,481.748779 623.025452,509.398651 
	C623.020996,511.123627 622.296814,512.846802 621.587280,514.750854 
z"/>
<path fill="#2E6BDD" opacity="1.000000" stroke="none" 
	d="
M712.812012,752.855469 
	C707.459045,745.846802 702.088440,738.473572 696.630493,730.767273 
	C699.415527,733.734497 702.521179,736.863892 705.097717,740.380920 
	C707.918213,744.230835 710.249817,748.438904 712.812012,752.855469 
z"/>
<path fill="#2E6BDD" opacity="1.000000" stroke="none" 
	d="
M696.562500,730.032776 
	C694.353333,727.506714 692.193787,724.613281 689.950439,721.380859 
	C692.115051,723.916382 694.363647,726.790833 696.562500,730.032776 
z"/>
<path fill="#215BC6" opacity="1.000000" stroke="none" 
	d="
M612.952759,521.651245 
	C615.178162,519.581360 617.770325,517.548218 620.660522,515.410278 
	C618.412170,517.432983 615.865906,519.560425 612.952759,521.651245 
z"/>
<path fill="#2E6BDD" opacity="1.000000" stroke="none" 
	d="
M625.223389,897.713745 
	C627.730591,897.338867 630.423462,897.255798 633.551941,897.282837 
	C631.128052,897.597107 628.268494,897.801331 625.223389,897.713745 
z"/>
<path fill="#2E6BDD" opacity="1.000000" stroke="none" 
	d="
M552.875000,739.231323 
	C551.715942,741.380676 550.247375,743.678833 548.452393,746.082397 
	C549.605835,743.918518 551.085693,741.649292 552.875000,739.231323 
z"/>
<path fill="#215BC6" opacity="1.000000" stroke="none" 
	d="
M603.242126,528.954346 
	C604.608154,527.533997 606.340576,526.127441 608.407715,524.638367 
	C607.031128,526.026611 605.319824,527.497375 603.242126,528.954346 
z"/>
<path fill="#215BC6" opacity="1.000000" stroke="none" 
	d="
M608.936890,524.695984 
	C609.719299,523.767639 610.872314,522.790344 612.327942,521.686768 
	C611.522827,522.589355 610.415161,523.618164 608.936890,524.695984 
z"/>
<path fill="#2E6BDD" opacity="1.000000" stroke="none" 
	d="
M556.859680,733.208862 
	C556.708496,734.056030 556.228699,734.999329 555.434692,736.056763 
	C555.590637,735.215576 556.060852,734.260315 556.859680,733.208862 
z"/>
<path fill="#2E6BDD" opacity="1.000000" stroke="none" 
	d="
M554.896973,736.222656 
	C554.710754,737.027832 554.230591,737.985474 553.435120,739.054321 
	C553.614258,738.235413 554.108643,737.305237 554.896973,736.222656 
z"/>
<path fill="#215BC6" opacity="1.000000" stroke="none" 
	d="
M600.962280,530.594482 
	C601.213745,530.044617 601.789490,529.510498 602.666809,528.926147 
	C602.407776,529.454102 601.847229,530.032166 600.962280,530.594482 
z"/>
<path fill="#215BC6" opacity="1.000000" stroke="none" 
	d="
M599.258301,531.832886 
	C599.347473,531.477356 599.720398,531.065186 600.375854,530.604126 
	C600.286255,530.962280 599.914124,531.369263 599.258301,531.832886 
z"/>
<path fill="#215BC6" opacity="1.000000" stroke="none" 
	d="
M621.682007,420.856964 
	C621.497498,420.933105 621.328491,420.786285 621.218994,420.396729 
	C621.386108,420.359100 621.525757,420.519073 621.682007,420.856964 
z"/>
</svg>